<svg width="20" height="12" viewBox="0 0 20 12" fill="none" xmlns="http://www.w3.org/2000/svg">
<path fill-rule="evenodd" clip-rule="evenodd" d="M2.33008 6.037C2.38608 6.157 2.45808 6.3 2.54608 6.462C2.85408 7.029 3.24208 7.596 3.71608 8.124C5.05408 9.615 6.78808 10.5 9.00008 10.5C10.9821 10.5 12.6781 9.615 14.1021 8.118C14.6091 7.585 15.0441 7.011 15.4041 6.438C15.5041 6.28 15.5871 6.139 15.6541 6.02C15.5861 5.9 15.5021 5.756 15.4011 5.595C15.0381 5.017 14.6011 4.438 14.0931 3.9C12.6661 2.391 10.9731 1.5 9.00008 1.5C7.06208 1.5 5.37308 2.389 3.93408 3.893C3.42008 4.43 2.97608 5.008 2.60608 5.585C2.49508 5.758 2.40308 5.911 2.33008 6.037V6.037Z" fill="#757575" stroke="#757575" stroke-width="0.2"/>
<path fill-rule="evenodd" clip-rule="evenodd" d="M9.01218 4.03125C7.97618 4.03325 7.13818 4.94525 7.13818 6.00025C7.13818 7.05425 7.97618 7.96925 9.01218 7.96925C10.0472 7.96925 10.8852 7.05325 10.8852 6.00025C10.8852 4.94525 10.0472 4.03025 9.01218 4.03125V4.03125Z" fill="#757575" stroke="white" stroke-width="0.8" stroke-linecap="round" stroke-linejoin="round"/>
<line x1="0.354914" y1="1.39665" x2="17.3549" y2="11.3966" stroke="#757575" stroke-width="1.4"/>
<line x1="1.20281" y1="0.655226" x2="19.3034" y2="11.3026" stroke="white" stroke-width="0.8"/>
</svg>
