<svg xmlns="http://www.w3.org/2000/svg" width="16" height="12" viewBox="0 0 16 12">
    <g fill="none" fill-rule="evenodd">
        <g stroke="#757575" stroke-width="1.5">
            <g>
                <g>
                    <g>
                        <g>
                            <path d="M.83 5.287c.056.12.128.263.216.425.308.567.696 1.134 1.17 1.662C3.554 8.865 5.288 9.75 7.5 9.75c1.982 0 3.678-.885 5.102-2.382.507-.533.942-1.107 1.302-1.68.1-.158.183-.299.25-.418-.068-.12-.152-.264-.253-.425-.363-.578-.8-1.157-1.308-1.695C11.166 1.641 9.473.75 7.5.75c-1.938 0-3.627.889-5.066 2.393-.514.537-.958 1.115-1.328 1.692-.111.173-.203.326-.276.452z" transform="translate(-1146 -354) translate(880 326) translate(266 28) translate(.5 .75)"/>
                            <path stroke-linecap="round" stroke-linejoin="round" d="M7.512 3.281c-1.036.002-1.874.914-1.874 1.969 0 1.054.838 1.969 1.874 1.969 1.035 0 1.873-.916 1.873-1.969 0-1.055-.838-1.97-1.873-1.969h0z" transform="translate(-1146 -354) translate(880 326) translate(266 28) translate(.5 .75)"/>
                        </g>
                    </g>
                </g>
            </g>
        </g>
    </g>
</svg>
