<svg width="1152" height="347" viewBox="0 0 1152 347" fill="none" xmlns="http://www.w3.org/2000/svg">
<path d="M128.5 93.5C52 -132.5 15 115 8 176.5C1 238 0 176.5 0 176.5V346.5H1156.5V132.5C1156.5 132.5 1148 203.5 1124.5 64C1101 -75.5 1051 194 998 216.5C945 239 998 110 934 82C870 54 873.5 218 798 232C722.5 246 739 76 681 82C623 88 605.5 173.5 540.5 184.5C475.5 195.5 547.5 138.5 419.5 93.5C291.5 48.5 291.5 259.5 257.5 176.5C223.5 93.5 205 319.5 128.5 93.5Z" fill="#F3C6F4" fill-opacity="0.29"/>
</svg>
